# xmcd
#
# Track frame offsets:
#	150
#	10020
#	17992
#	27365
#	36307
#	53932
#	67805
#	77062
#	90540
#	105862
#	118870
#	129105
#	138160
#	149070
#	161457
#	172892
#	182837
#	193802
#	207712
#	218237
#	228437
#	239037
#
# Disc length: 3266 seconds
#
# Revision: 0
# Processed by: cddbd v1.4PL0 Copyright (c) Steve Scherf et al.
# Submitted via: audiograbber 1.81.02
#
DISCID=350cc016
DTITLE=Ohnsorgs - Ohnsorgs Plattdeutsche Hitparade
DYEAR=1998
DGENRE=Folk
TTITLE0=Sandra Keck and Erkki Hopf - Die Ohnsorgs
TTITLE1=Jürgen Schröder (Gitarre) - Casa Manana
TTITLE2=Sandra Keck, Beate Kiupel, Birte Kretschmer,Christine Pappert and Antje S
TTITLE2=chröder - Sitt'n Lütte Deern
TTITLE3=Antje Schröder and Jasper Vpgt - Greten, kumm mol
TTITLE4=Hilde Sicks - Fährmann Adje
TTITLE5=Sandra Keck and Jasper Vogt - De Buur In 'n Kroog
TTITLE6=Uta Stammer and Chor - Wat de dot
TTITLE7=Heidi Mahler - Atjüs, min Jan
TTITLE8=Herma Köhn and Erkki Hopf - Düffer un Duuw (Wat de Düffer to de Duuw sech
TTITLE8=t)
TTITLE9=Sandra Keck and Beata Kiupel - Grootvadders Klock
TTITLE10=Heidi Kabel and Henry Vahl - Gretje un Tedje
TTITLE11=Jasper Vogt and Beate Kiupel - Wo ik herkom
TTITLE12=Sandra Keck, Beate Kiupel, Birte Kretschmer,Christine Pappert and Antje 
TTITLE12=Schröder - Fresenhof
TTITLE13=Beate Kiupel and Sandra Keck - Neihmaschin
TTITLE14=Sandra Keck, Beate Kiupel, Birte Kretschmer,Christine Pappert, Antje S
TTITLE14=chröder and Jasper Vogt - VedderJürgen Pooch - Heimweh-Blues
TTITLE15=Jürgen Pooch - Heimweh-Blues
TTITLE16=Antje Schröder and Sandra Keck - Dat Du meen leewsten büst-Plaisir D'Amo
TTITLE16=r
TTITLE17=Jasper Vogt - Mien Slipsen
TTITLE18=Sandra Keck, Beate Kiupel, Birte Kretschmer,Christine Pappert and Antje 
TTITLE18=Schröder - Lütt Anna Susanna
TTITLE19=Erkki Hopf and Chor - Deern ut Finnland
TTITLE20=Sandra Keck, Beate Kiupel, Birte Kretschmer,Christine Pappert and Antje 
TTITLE20=Schröder - Över de stillen StrJürgen Schröder (Gitarre) - Taxi
TTITLE21=Jürgen Schröder (Gitarre) - Taxi
EXTD=
EXTT0=
EXTT1=
EXTT2=
EXTT3=
EXTT4=
EXTT5=
EXTT6=
EXTT7=
EXTT8=
EXTT9=
EXTT10=
EXTT11=
EXTT12=
EXTT13=
EXTT14=
EXTT15=
EXTT16=
EXTT17=
EXTT18=
EXTT19=
EXTT20=
EXTT21=
PLAYORDER=
